<svg width="683" height="138" viewBox="0 0 683 138" fill="none" xmlns="http://www.w3.org/2000/svg">
<path fill-rule="evenodd" clip-rule="evenodd" d="M59.1442 0C48.256 0 39.4294 8.82658 39.4294 19.7147V39.4294H118.288C129.176 39.4294 138.003 30.6029 138.003 19.7147V0H59.1442ZM19.7147 69.0015C19.7147 58.1134 28.5413 49.2868 39.4294 49.2868H98.5736V69.0015C98.5736 79.8897 89.747 88.7162 78.8589 88.7162H19.7147V69.0015ZM0 118.288C0 107.4 8.82659 98.5736 19.7147 98.5736H39.4294V118.288C39.4294 129.176 30.6028 138.003 19.7147 138.003C8.82659 138.003 0 129.176 0 118.288Z" fill="#242424"/>
<path d="M644.326 104.523V54.0384H658.019V104.523H644.326ZM658.019 76.6154L652.688 73.0616C653.315 66.8599 655.127 61.9821 658.124 58.4284C661.12 54.8049 665.44 52.9932 671.084 52.9932C673.523 52.9932 675.718 53.4113 677.669 54.2474C679.62 55.0139 681.397 56.3031 683 58.1148L674.429 67.94C673.663 67.1038 672.722 66.4766 671.607 66.0585C670.562 65.6405 669.342 65.4314 667.949 65.4314C665.022 65.4314 662.618 66.3721 660.737 68.2535C658.925 70.0653 658.019 72.8525 658.019 76.6154Z" fill="#242424"/>
<path d="M611.923 105.568C606.627 105.568 601.923 104.453 597.812 102.224C593.701 99.924 590.426 96.7883 587.987 92.8165C585.618 88.8446 584.433 84.3153 584.433 79.2285C584.433 74.2114 585.583 69.7517 587.882 65.8495C590.252 61.8777 593.457 58.742 597.499 56.4425C601.54 54.0733 606.035 52.8887 610.982 52.8887C615.86 52.8887 620.145 54.0036 623.838 56.2334C627.601 58.3936 630.528 61.3899 632.618 65.2224C634.778 68.9852 635.859 73.2707 635.859 78.0787C635.859 78.9846 635.789 79.9253 635.649 80.9008C635.58 81.8067 635.406 82.8519 635.127 84.0365L592.69 84.1411V73.8978L628.751 73.7933L623.211 78.0787C623.072 75.0824 622.514 72.5738 621.539 70.5531C620.633 68.5323 619.274 66.9993 617.462 65.9541C615.72 64.8391 613.56 64.2817 610.982 64.2817C608.264 64.2817 605.895 64.9088 603.874 66.1631C601.854 67.3477 600.286 69.0549 599.171 71.2847C598.126 73.4449 597.603 76.0231 597.603 79.0194C597.603 82.0854 598.161 84.7682 599.275 87.0677C600.46 89.2975 602.132 91.0396 604.293 92.2939C606.453 93.4785 608.961 94.0707 611.818 94.0707C614.396 94.0707 616.731 93.6527 618.821 92.8165C620.912 91.9106 622.723 90.5866 624.256 88.8446L632.305 96.8929C629.866 99.7498 626.87 101.91 623.316 103.373C619.832 104.837 616.034 105.568 611.923 105.568Z" fill="#242424"/>
<path d="M561.287 105.568C556.131 105.568 551.497 104.419 547.385 102.119C543.274 99.8195 540.034 96.6838 537.665 92.7119C535.296 88.7401 534.111 84.2804 534.111 79.333C534.111 74.3159 535.296 69.8214 537.665 65.8495C540.034 61.8777 543.274 58.742 547.385 56.4425C551.566 54.0733 556.2 52.8887 561.287 52.8887C565.259 52.8887 568.917 53.6203 572.262 55.0837C575.607 56.547 578.498 58.6374 580.937 61.355L572.157 70.2395C570.833 68.7762 569.231 67.6613 567.349 66.8948C565.538 66.1283 563.517 65.745 561.287 65.745C558.778 65.745 556.514 66.3373 554.493 67.5219C552.542 68.6368 550.974 70.2047 549.789 72.2254C548.675 74.1765 548.117 76.5109 548.117 79.2285C548.117 81.8764 548.675 84.2456 549.789 86.336C550.974 88.3568 552.542 89.9595 554.493 91.1441C556.514 92.259 558.778 92.8165 561.287 92.8165C563.587 92.8165 565.642 92.4332 567.454 91.6667C569.335 90.8305 570.938 89.6459 572.262 88.1129L581.146 96.9974C578.568 99.7847 575.607 101.91 572.262 103.373C568.917 104.837 565.259 105.568 561.287 105.568Z" fill="#242424"/>
<path d="M512.734 104.523V75.5701C512.734 72.5738 511.793 70.1349 509.911 68.2535C508.03 66.3721 505.591 65.4314 502.595 65.4314C500.644 65.4314 498.902 65.8495 497.369 66.6857C495.836 67.5219 494.616 68.7065 493.71 70.2395C492.874 71.7725 492.456 73.5494 492.456 75.5701L487.125 72.8525C487.125 68.8807 487.962 65.4314 489.634 62.5048C491.376 59.5084 493.745 57.1741 496.742 55.5017C499.808 53.8294 503.257 52.9932 507.089 52.9932C510.783 52.9932 514.092 53.9339 517.019 55.8153C519.946 57.627 522.245 60.031 523.918 63.0274C525.59 65.954 526.426 69.1246 526.426 72.539V104.523H512.734ZM478.764 104.523V54.0384H492.456V104.523H478.764Z" fill="#242424"/>
<path d="M438.429 105.568C433.83 105.568 429.684 104.418 425.991 102.119C422.298 99.8195 419.406 96.6838 417.316 92.7119C415.225 88.74 414.18 84.2804 414.18 79.333C414.18 74.3159 415.225 69.8214 417.316 65.8495C419.406 61.8776 422.298 58.7419 425.991 56.4424C429.684 54.1429 433.83 52.9932 438.429 52.9932C442.053 52.9932 445.293 53.7248 448.15 55.1882C451.007 56.6515 453.271 58.7071 454.944 61.355C456.686 63.9332 457.627 66.8599 457.766 70.1349V88.322C457.627 91.6667 456.686 94.6282 454.944 97.2064C453.271 99.7846 451.007 101.84 448.15 103.373C445.293 104.837 442.053 105.568 438.429 105.568ZM440.938 92.921C444.77 92.921 447.871 91.6667 450.24 89.1581C452.609 86.5799 453.794 83.27 453.794 79.2284C453.794 76.5805 453.237 74.2462 452.122 72.2254C451.076 70.1349 449.578 68.5323 447.627 67.4173C445.746 66.2327 443.516 65.6405 440.938 65.6405C438.429 65.6405 436.199 66.2327 434.248 67.4173C432.367 68.5323 430.869 70.1349 429.754 72.2254C428.709 74.2462 428.186 76.5805 428.186 79.2284C428.186 81.946 428.709 84.3501 429.754 86.4405C430.869 88.4613 432.367 90.064 434.248 91.2486C436.199 92.3635 438.429 92.921 440.938 92.921ZM453.062 104.523V90.935L455.257 78.6013L453.062 66.4766V54.0384H466.65V104.523H453.062Z" fill="#242424"/>
<path d="M391.491 104.523V28.9529H405.184V104.523H391.491Z" fill="#242424"/>
<path d="M359.087 105.568C353.791 105.568 349.088 104.453 344.977 102.224C340.865 99.924 337.59 96.7883 335.151 92.8165C332.782 88.8446 331.598 84.3153 331.598 79.2285C331.598 74.2114 332.747 69.7517 335.047 65.8495C337.416 61.8777 340.621 58.742 344.663 56.4425C348.705 54.0733 353.199 52.8887 358.147 52.8887C363.024 52.8887 367.31 54.0036 371.003 56.2334C374.766 58.3936 377.692 61.3899 379.783 65.2224C381.943 68.9852 383.023 73.2707 383.023 78.0787C383.023 78.9846 382.953 79.9253 382.814 80.9008C382.744 81.8067 382.57 82.8519 382.291 84.0365L339.855 84.1411V73.8978L375.915 73.7933L370.376 78.0787C370.236 75.0824 369.679 72.5738 368.703 70.5531C367.797 68.5323 366.439 66.9993 364.627 65.9541C362.885 64.8391 360.725 64.2817 358.147 64.2817C355.429 64.2817 353.06 64.9088 351.039 66.1631C349.018 67.3477 347.45 69.0549 346.335 71.2847C345.29 73.4449 344.768 76.0231 344.768 79.0194C344.768 82.0854 345.325 84.7682 346.44 87.0677C347.625 89.2975 349.297 91.0396 351.457 92.2939C353.617 93.4785 356.126 94.0707 358.983 94.0707C361.561 94.0707 363.895 93.6527 365.986 92.8165C368.076 91.9106 369.888 90.5866 371.421 88.8446L379.469 96.8929C377.03 99.7498 374.034 101.91 370.48 103.373C366.996 104.837 363.198 105.568 359.087 105.568Z" fill="#242424"/>
<path d="M302.539 105.568C297.243 105.568 292.539 104.453 288.428 102.224C284.317 99.924 281.042 96.7883 278.603 92.8165C276.234 88.8446 275.049 84.3153 275.049 79.2285C275.049 74.2114 276.199 69.7517 278.498 65.8495C280.868 61.8777 284.073 58.742 288.114 56.4425C292.156 54.0733 296.65 52.8887 301.598 52.8887C306.476 52.8887 310.761 54.0036 314.454 56.2334C318.217 58.3936 321.144 61.3899 323.234 65.2224C325.394 68.9852 326.474 73.2707 326.474 78.0787C326.474 78.9846 326.405 79.9253 326.265 80.9008C326.196 81.8067 326.021 82.8519 325.743 84.0365L283.306 84.1411V73.8978L319.367 73.7933L313.827 78.0787C313.688 75.0824 313.13 72.5738 312.155 70.5531C311.249 68.5323 309.89 66.9993 308.078 65.9541C306.336 64.8391 304.176 64.2817 301.598 64.2817C298.88 64.2817 296.511 64.9088 294.49 66.1631C292.47 67.3477 290.902 69.0549 289.787 71.2847C288.742 73.4449 288.219 76.0231 288.219 79.0194C288.219 82.0854 288.776 84.7682 289.891 87.0677C291.076 89.2975 292.748 91.0396 294.908 92.2939C297.069 93.4785 299.577 94.0707 302.434 94.0707C305.012 94.0707 307.347 93.6527 309.437 92.8165C311.528 91.9106 313.339 90.5866 314.872 88.8446L322.921 96.8929C320.482 99.7498 317.485 101.91 313.932 103.373C310.448 104.837 306.65 105.568 302.539 105.568Z" fill="#242424"/>
<path d="M236.34 104.523V54.0384H250.032V104.523H236.34ZM250.032 76.6154L244.701 73.0616C245.329 66.8599 247.14 61.9821 250.137 58.4284C253.133 54.8049 257.453 52.9932 263.098 52.9932C265.536 52.9932 267.731 53.4113 269.682 54.2474C271.634 55.0139 273.41 56.3031 275.013 58.1148L266.442 67.94C265.676 67.1038 264.735 66.4766 263.62 66.0585C262.575 65.6405 261.355 65.4314 259.962 65.4314C257.035 65.4314 254.631 66.3721 252.75 68.2535C250.938 70.0653 250.032 72.8525 250.032 76.6154Z" fill="#242424"/>
<path d="M177.376 104.523V31.0433H191.591V104.523H177.376ZM187.828 74.4204V61.7731H224.829V74.4204H187.828ZM187.828 43.5861V31.0433H226.606V43.5861H187.828Z" fill="#242424"/>
</svg>
